<svg id="visual" viewBox="0 0 900 450" width="900" height="450" xmlns="http://www.w3.org/2000/svg" xmlns:xlink="http://www.w3.org/1999/xlink" version="1.1"><g stroke-width="1" stroke-linejoin="bevel"><path d="M465 162L471 97L430 107Z" fill="#151313" stroke="#151313"></path><path d="M430 107L384 190L465 162Z" fill="#171616" stroke="#171616"></path><path d="M465 162L565 67L471 97Z" fill="#070404" stroke="#070404"></path><path d="M471 97L435 0L430 107Z" fill="#171616" stroke="#171616"></path><path d="M509 0L435 0L471 97Z" fill="#000000" stroke="#000000"></path><path d="M430 107L317 77L384 190Z" fill="#151313" stroke="#151313"></path><path d="M565 67L509 0L471 97Z" fill="#212020" stroke="#212020"></path><path d="M375 285L535 249L465 162Z" fill="#121010" stroke="#121010"></path><path d="M465 162L632 205L565 67Z" fill="#151313" stroke="#151313"></path><path d="M435 0L317 77L430 107Z" fill="#0b0808" stroke="#0b0808"></path><path d="M285 219L375 285L384 190Z" fill="#1c1b1b" stroke="#1c1b1b"></path><path d="M384 190L375 285L465 162Z" fill="#0b0808" stroke="#0b0808"></path><path d="M495 393L583 272L535 249Z" fill="#000000" stroke="#000000"></path><path d="M535 249L632 205L465 162Z" fill="#070404" stroke="#070404"></path><path d="M583 272L632 205L535 249Z" fill="#0f0c0c" stroke="#0f0c0c"></path><path d="M667 156L600 0L565 67Z" fill="#151313" stroke="#151313"></path><path d="M565 67L600 0L509 0Z" fill="#1a1818" stroke="#1a1818"></path><path d="M317 77L285 219L384 190Z" fill="#151313" stroke="#151313"></path><path d="M632 205L667 156L565 67Z" fill="#212020" stroke="#212020"></path><path d="M285 219L321 296L375 285Z" fill="#0b0808" stroke="#0b0808"></path><path d="M375 285L396 359L535 249Z" fill="#171616" stroke="#171616"></path><path d="M435 0L275 0L317 77Z" fill="#151313" stroke="#151313"></path><path d="M317 77L217 159L285 219Z" fill="#070404" stroke="#070404"></path><path d="M321 296L396 359L375 285Z" fill="#121010" stroke="#121010"></path><path d="M214 118L217 159L317 77Z" fill="#1a1818" stroke="#1a1818"></path><path d="M285 219L218 274L321 296Z" fill="#0f0c0c" stroke="#0f0c0c"></path><path d="M275 0L214 118L317 77Z" fill="#1c1b1b" stroke="#1c1b1b"></path><path d="M583 272L682 267L632 205Z" fill="#0f0c0c" stroke="#0f0c0c"></path><path d="M632 205L682 267L667 156Z" fill="#1c1b1b" stroke="#1c1b1b"></path><path d="M696 371L682 267L583 272Z" fill="#1c1b1b" stroke="#1c1b1b"></path><path d="M396 359L495 393L535 249Z" fill="#070404" stroke="#070404"></path><path d="M667 156L732 120L600 0Z" fill="#212020" stroke="#212020"></path><path d="M802 203L732 120L667 156Z" fill="#1c1b1b" stroke="#1c1b1b"></path><path d="M198 363L218 274L78 260Z" fill="#1f1d1d" stroke="#1f1d1d"></path><path d="M217 159L218 274L285 219Z" fill="#1f1d1d" stroke="#1f1d1d"></path><path d="M321 296L265 376L396 359Z" fill="#1f1d1d" stroke="#1f1d1d"></path><path d="M275 0L195 0L214 118Z" fill="#070404" stroke="#070404"></path><path d="M77 218L218 274L217 159Z" fill="#0b0808" stroke="#0b0808"></path><path d="M495 393L580 396L583 272Z" fill="#151313" stroke="#151313"></path><path d="M732 120L727 0L600 0Z" fill="#212020" stroke="#212020"></path><path d="M218 274L265 376L321 296Z" fill="#000000" stroke="#000000"></path><path d="M396 359L439 450L495 393Z" fill="#121010" stroke="#121010"></path><path d="M317 450L439 450L396 359Z" fill="#121010" stroke="#121010"></path><path d="M495 393L533 450L580 396Z" fill="#1f1d1d" stroke="#1f1d1d"></path><path d="M439 450L533 450L495 393Z" fill="#1c1b1b" stroke="#1c1b1b"></path><path d="M598 450L696 371L580 396Z" fill="#212020" stroke="#212020"></path><path d="M580 396L696 371L583 272Z" fill="#1f1d1d" stroke="#1f1d1d"></path><path d="M682 267L802 203L667 156Z" fill="#1c1b1b" stroke="#1c1b1b"></path><path d="M108 71L217 159L214 118Z" fill="#0b0808" stroke="#0b0808"></path><path d="M218 274L198 363L265 376Z" fill="#151313" stroke="#151313"></path><path d="M265 376L317 450L396 359Z" fill="#0f0c0c" stroke="#0f0c0c"></path><path d="M229 450L317 450L265 376Z" fill="#171616" stroke="#171616"></path><path d="M533 450L598 450L580 396Z" fill="#171616" stroke="#171616"></path><path d="M787 323L802 203L682 267Z" fill="#070404" stroke="#070404"></path><path d="M732 120L835 59L727 0Z" fill="#212020" stroke="#212020"></path><path d="M195 0L108 71L214 118Z" fill="#000000" stroke="#000000"></path><path d="M195 0L99 0L108 71Z" fill="#1a1818" stroke="#1a1818"></path><path d="M696 371L787 323L682 267Z" fill="#151313" stroke="#151313"></path><path d="M808 450L787 323L696 371Z" fill="#151313" stroke="#151313"></path><path d="M900 154L835 59L802 203Z" fill="#1c1b1b" stroke="#1c1b1b"></path><path d="M802 203L835 59L732 120Z" fill="#1c1b1b" stroke="#1c1b1b"></path><path d="M108 71L77 218L217 159Z" fill="#0b0808" stroke="#0b0808"></path><path d="M0 208L77 218L108 71Z" fill="#151313" stroke="#151313"></path><path d="M787 323L830 251L802 203Z" fill="#0b0808" stroke="#0b0808"></path><path d="M198 363L229 450L265 376Z" fill="#0b0808" stroke="#0b0808"></path><path d="M137 450L229 450L198 363Z" fill="#1f1d1d" stroke="#1f1d1d"></path><path d="M835 59L830 0L727 0Z" fill="#1a1818" stroke="#1a1818"></path><path d="M77 218L78 260L218 274Z" fill="#151313" stroke="#151313"></path><path d="M598 450L711 450L696 371Z" fill="#171616" stroke="#171616"></path><path d="M78 260L128 383L198 363Z" fill="#212020" stroke="#212020"></path><path d="M900 305L830 251L787 323Z" fill="#070404" stroke="#070404"></path><path d="M900 305L900 154L830 251Z" fill="#070404" stroke="#070404"></path><path d="M830 251L900 154L802 203Z" fill="#1c1b1b" stroke="#1c1b1b"></path><path d="M835 59L900 0L830 0Z" fill="#070404" stroke="#070404"></path><path d="M900 154L900 63L835 59Z" fill="#121010" stroke="#121010"></path><path d="M128 383L137 450L198 363Z" fill="#0b0808" stroke="#0b0808"></path><path d="M0 450L137 450L128 383Z" fill="#212020" stroke="#212020"></path><path d="M900 63L900 0L835 59Z" fill="#070404" stroke="#070404"></path><path d="M99 0L0 55L108 71Z" fill="#000000" stroke="#000000"></path><path d="M77 218L0 208L78 260Z" fill="#121010" stroke="#121010"></path><path d="M78 260L0 308L128 383Z" fill="#171616" stroke="#171616"></path><path d="M0 55L0 208L108 71Z" fill="#121010" stroke="#121010"></path><path d="M99 0L0 0L0 55Z" fill="#1c1b1b" stroke="#1c1b1b"></path><path d="M711 450L808 450L696 371Z" fill="#070404" stroke="#070404"></path><path d="M900 395L900 305L787 323Z" fill="#212020" stroke="#212020"></path><path d="M0 208L0 308L78 260Z" fill="#121010" stroke="#121010"></path><path d="M808 450L900 395L787 323Z" fill="#151313" stroke="#151313"></path><path d="M0 308L0 385L128 383Z" fill="#1c1b1b" stroke="#1c1b1b"></path><path d="M808 450L900 450L900 395Z" fill="#1c1b1b" stroke="#1c1b1b"></path><path d="M0 385L0 450L128 383Z" fill="#1f1d1d" stroke="#1f1d1d"></path></g></svg>